<?xml version="1.0" encoding="UTF-8"?>
<svg width="90px" height="90px" viewBox="0 0 90 90" version="1.1" xmlns="http://www.w3.org/2000/svg" xmlns:xlink="http://www.w3.org/1999/xlink">
    <!-- Generator: Sketch 55.2 (78181) - https://sketchapp.com -->
    <title>Group</title>
    <desc>Created with Sketch.</desc>
    <g id="Page-1" stroke="none" stroke-width="1" fill="none" fill-rule="evenodd">
        <g id="Letter" fill="#000000" fill-rule="nonzero">
            <g id="Group">
                <path d="M19.777,33.979 L13.019,33.979 C11.903,33.979 10.998,34.884 10.998,36 L10.998,77.355 C10.998,78.471 11.903,79.376 13.019,79.376 L53.772,79.376 C54.888,79.376 55.793,78.471 55.793,77.355 L55.793,36 C55.793,34.884 54.888,33.979 53.772,33.979 L38.326,33.979 L38.326,23.354 L57.77,23.354 C62.546,23.354 66.418,27.226 66.418,32.002 L66.418,81.353 C66.418,86.129 62.546,90.001 57.77,90.001 L9.021,90.001 C4.245,90.001 0.373,86.129 0.373,81.353 L0.373,32.002 C0.373,27.226 4.245,23.354 9.021,23.354 L19.777,23.354 L19.777,33.979 Z" id="Path"></path>
                <path d="M70.223,56.021 L76.981,56.021 C78.097,56.021 79.002,55.116 79.002,54 L79.002,12.646 C79.002,11.53 78.097,10.625 76.981,10.625 L36.228,10.625 C35.112,10.625 34.207,11.53 34.207,12.646 L34.207,54 C34.207,55.116 35.112,56.021 36.228,56.021 L51.674,56.021 L51.674,66.646 L32.23,66.646 C27.454,66.646 23.582,62.774 23.582,57.998 L23.582,8.648 C23.582,3.872 27.454,0 32.23,0 L80.979,0 C85.755,0 89.627,3.872 89.627,8.648 L89.627,57.999 C89.627,62.775 85.755,66.647 80.979,66.647 L70.223,66.647 L70.223,56.021 Z" id="Path"></path>
                <polyline id="Path" points="19.777 23.354 19.777 33.979 13.019 33.979"></polyline>
            </g>
        </g>
    </g>
</svg>